<svg width="32" height="33" viewBox="0 0 32 33" fill="none" xmlns="http://www.w3.org/2000/svg">
<path d="M3.63991 28.7885C0.91338 26.0997 -0.365742 22.0103 0.403018 18.2521C1.1635 14.0312 4.44177 10.352 8.58168 9.19245C10.6084 11.2486 12.6609 13.2772 14.6968 15.3223C15.1161 15.7269 15.5005 16.1674 15.9529 16.5361C14.5101 16.5509 13.0646 16.4975 11.6236 16.5536C9.63275 16.6796 7.94625 18.5574 8.05752 20.5537C8.03913 22.5685 9.84609 24.3893 11.8618 24.3773C15.827 24.3865 19.7912 24.3764 23.7546 24.3837C26.3597 26.9917 28.9603 29.6051 31.5792 32.2001C31.1746 32.2773 30.7635 32.2562 30.3553 32.2525C24.241 32.2534 18.1287 32.2525 12.0163 32.2534C8.9164 32.2617 5.81929 31.0037 3.63991 28.7885Z" fill="#7C4EE4"/>
<path d="M7.85357 8.49775C5.27601 5.93766 2.738 3.33528 0.12918 0.805542C6.23145 0.82945 12.3328 0.809219 18.4351 0.816575C19.4595 0.830369 20.494 0.758645 21.5064 0.950835C24.1015 1.30855 26.5595 2.57847 28.3554 4.48382C30.3518 6.55377 31.5196 9.38421 31.6107 12.2551C31.6787 14.6212 31.0093 17.0056 29.7283 18.9956C28.2211 21.3101 25.8919 23.1401 23.2122 23.872C21.2112 21.8389 19.179 19.8342 17.1651 17.8121C16.7596 17.436 16.4194 16.9854 15.9541 16.6746C16.0331 16.6093 16.1187 16.5541 16.2125 16.51C17.4916 16.5366 18.7735 16.5329 20.0535 16.5164C22.0398 16.4612 23.7833 14.646 23.7437 12.657C23.8017 11.0413 22.7083 9.48904 21.2011 8.93454C20.6264 8.68626 19.9919 8.68258 19.3767 8.6881C15.6635 8.69177 11.9512 8.68718 8.23887 8.69086C8.08346 8.69177 7.95472 8.6274 7.85357 8.49775Z" fill="#7C4EE4"/>
</svg>
